<svg height="175" viewBox="0 0 1320 175" width="1320" xmlns="http://www.w3.org/2000/svg"><g fill="none" fill-rule="evenodd"><g fill="#979797" transform="translate(207 146)"><path d="m1095.98597 4.02812651 14.01403 6.97187349-13.98592 7.0280983-.01208-6.0000983-483.999992.971998-.999998.002008-.004016-1.999996.999998-.002008 483.999008-.972002z" fill-rule="nonzero"/><text font-family="Helvetica" font-size="20"><tspan x="505.079" y="19">Significand</tspan></text><path d="m14.5070707 4.51415928-.0060707 5.99984072 480.500011.4860005 1 .0010111-.002023 1.999999-.999999-.0010111-480.500989-.4859995-.005085 6.0001521-13.992915-7.0141521z" fill-rule="nonzero"/></g><g fill="#979797" transform="translate(0 146)"><text font-family="Helvetica" font-size="20"><tspan x="52.244" y="19">Exponent</tspan></text><path d="m14 5v6h30v2h-30v6l-14-7zm157 0 14 7-14 7v-6h-29v-2h29z" fill-rule="nonzero"/></g><g transform="translate(1 28)"><g transform="translate(1295)"><path d="m0 0h20v100h-20z" fill="#bbe0ed" stroke="#979797"/><text fill="#000" font-family="Helvetica" font-size="18"><tspan x="6" y="55">s</tspan></text></g><g transform="translate(1275)"><path d="m0 0h20v100h-20z" fill="#bbe0ed" stroke="#979797"/><text fill="#000" font-family="Helvetica" font-size="18"><tspan x="6" y="55">s</tspan></text></g><g transform="translate(1255)"><path d="m0 0h20v100h-20z" fill="#bbe0ed" stroke="#979797"/><text fill="#000" font-family="Helvetica" font-size="18"><tspan x="6" y="55">s</tspan></text></g><g transform="translate(1235)"><path d="m0 0h20v100h-20z" fill="#bbe0ed" stroke="#979797"/><text fill="#000" font-family="Helvetica" font-size="18"><tspan x="6" y="55">s</tspan></text></g><g transform="translate(1215)"><path d="m0 0h20v100h-20z" fill="#bbe0ed" stroke="#979797"/><text fill="#000" font-family="Helvetica" font-size="18"><tspan x="6" y="55">s</tspan></text></g><g transform="translate(1195)"><path d="m0 0h20v100h-20z" fill="#bbe0ed" stroke="#979797"/><text fill="#000" font-family="Helvetica" font-size="18"><tspan x="6" y="55">s</tspan></text></g><g transform="translate(1175)"><path d="m0 0h20v100h-20z" fill="#bbe0ed" stroke="#979797"/><text fill="#000" font-family="Helvetica" font-size="18"><tspan x="6" y="55">s</tspan></text></g><g transform="translate(1155)"><path d="m0 0h20v100h-20z" fill="#bbe0ed" stroke="#979797"/><text fill="#000" font-family="Helvetica" font-size="18"><tspan x="6" y="55">s</tspan></text></g><g transform="translate(1130)"><path d="m0 0h20v100h-20z" fill="#bbe0ed" stroke="#979797"/><text fill="#000" font-family="Helvetica" font-size="18"><tspan x="6" y="55">s</tspan></text></g><g transform="translate(1110)"><path d="m0 0h20v100h-20z" fill="#bbe0ed" stroke="#979797"/><text fill="#000" font-family="Helvetica" font-size="18"><tspan x="6" y="55">s</tspan></text></g><g transform="translate(1090)"><path d="m0 0h20v100h-20z" fill="#bbe0ed" stroke="#979797"/><text fill="#000" font-family="Helvetica" font-size="18"><tspan x="6" y="55">s</tspan></text></g><g transform="translate(1070)"><path d="m0 0h20v100h-20z" fill="#bbe0ed" stroke="#979797"/><text fill="#000" font-family="Helvetica" font-size="18"><tspan x="6" y="55">s</tspan></text></g><g transform="translate(1050)"><path d="m0 0h20v100h-20z" fill="#bbe0ed" stroke="#979797"/><text fill="#000" font-family="Helvetica" font-size="18"><tspan x="6" y="55">s</tspan></text></g><g transform="translate(1030)"><path d="m0 0h20v100h-20z" fill="#bbe0ed" stroke="#979797"/><text fill="#000" font-family="Helvetica" font-size="18"><tspan x="6" y="55">s</tspan></text></g><g transform="translate(1010)"><path d="m0 0h20v100h-20z" fill="#bbe0ed" stroke="#979797"/><text fill="#000" font-family="Helvetica" font-size="18"><tspan x="6" y="55">s</tspan></text></g><g transform="translate(990)"><path d="m0 0h20v100h-20z" fill="#bbe0ed" stroke="#979797"/><text fill="#000" font-family="Helvetica" font-size="18"><tspan x="6" y="55">s</tspan></text></g><g transform="translate(965)"><path d="m0 0h20v100h-20z" fill="#bbe0ed" stroke="#979797"/><text fill="#000" font-family="Helvetica" font-size="18"><tspan x="6" y="55">s</tspan></text></g><g transform="translate(945)"><path d="m0 0h20v100h-20z" fill="#bbe0ed" stroke="#979797"/><text fill="#000" font-family="Helvetica" font-size="18"><tspan x="6" y="55">s</tspan></text></g><g transform="translate(925)"><path d="m0 0h20v100h-20z" fill="#bbe0ed" stroke="#979797"/><text fill="#000" font-family="Helvetica" font-size="18"><tspan x="6" y="55">s</tspan></text></g><g transform="translate(905)"><path d="m0 0h20v100h-20z" fill="#bbe0ed" stroke="#979797"/><text fill="#000" font-family="Helvetica" font-size="18"><tspan x="6" y="55">s</tspan></text></g><g transform="translate(885)"><path d="m0 0h20v100h-20z" fill="#bbe0ed" stroke="#979797"/><text fill="#000" font-family="Helvetica" font-size="18"><tspan x="6" y="55">s</tspan></text></g><g transform="translate(865)"><path d="m0 0h20v100h-20z" fill="#bbe0ed" stroke="#979797"/><text fill="#000" font-family="Helvetica" font-size="18"><tspan x="6" y="55">s</tspan></text></g><g transform="translate(845)"><path d="m0 0h20v100h-20z" fill="#bbe0ed" stroke="#979797"/><text fill="#000" font-family="Helvetica" font-size="18"><tspan x="6" y="55">s</tspan></text></g><g transform="translate(825)"><path d="m0 0h20v100h-20z" fill="#bbe0ed" stroke="#979797"/><text fill="#000" font-family="Helvetica" font-size="18"><tspan x="6" y="55">s</tspan></text></g><g transform="translate(800)"><path d="m0 0h20v100h-20z" fill="#bbe0ed" stroke="#979797"/><text fill="#000" font-family="Helvetica" font-size="18"><tspan x="6" y="55">s</tspan></text></g><g transform="translate(780)"><path d="m0 0h20v100h-20z" fill="#bbe0ed" stroke="#979797"/><text fill="#000" font-family="Helvetica" font-size="18"><tspan x="6" y="55">s</tspan></text></g><g transform="translate(760)"><path d="m0 0h20v100h-20z" fill="#bbe0ed" stroke="#979797"/><text fill="#000" font-family="Helvetica" font-size="18"><tspan x="6" y="55">s</tspan></text></g><g transform="translate(740)"><path d="m0 0h20v100h-20z" fill="#bbe0ed" stroke="#979797"/><text fill="#000" font-family="Helvetica" font-size="18"><tspan x="6" y="55">s</tspan></text></g><g transform="translate(720)"><path d="m0 0h20v100h-20z" fill="#bbe0ed" stroke="#979797"/><text fill="#000" font-family="Helvetica" font-size="18"><tspan x="6" y="55">s</tspan></text></g><g transform="translate(700)"><path d="m0 0h20v100h-20z" fill="#bbe0ed" stroke="#979797"/><text fill="#000" font-family="Helvetica" font-size="18"><tspan x="6" y="55">s</tspan></text></g><g transform="translate(680)"><path d="m0 0h20v100h-20z" fill="#bbe0ed" stroke="#979797"/><text fill="#000" font-family="Helvetica" font-size="18"><tspan x="6" y="55">s</tspan></text></g><g transform="translate(660)"><path d="m0 0h20v100h-20z" fill="#bbe0ed" stroke="#979797"/><text fill="#000" font-family="Helvetica" font-size="18"><tspan x="6" y="55">s</tspan></text></g><g transform="translate(635)"><path d="m0 0h20v100h-20z" fill="#bbe0ed" stroke="#979797"/><text fill="#000" font-family="Helvetica" font-size="18"><tspan x="6" y="55">s</tspan></text></g><g transform="translate(615)"><path d="m0 0h20v100h-20z" fill="#bbe0ed" stroke="#979797"/><text fill="#000" font-family="Helvetica" font-size="18"><tspan x="6" y="55">s</tspan></text></g><g transform="translate(595)"><path d="m0 0h20v100h-20z" fill="#bbe0ed" stroke="#979797"/><text fill="#000" font-family="Helvetica" font-size="18"><tspan x="6" y="55">s</tspan></text></g><g transform="translate(575)"><path d="m0 0h20v100h-20z" fill="#bbe0ed" stroke="#979797"/><text fill="#000" font-family="Helvetica" font-size="18"><tspan x="6" y="55">s</tspan></text></g><g transform="translate(555)"><path d="m0 0h20v100h-20z" fill="#bbe0ed" stroke="#979797"/><text fill="#000" font-family="Helvetica" font-size="18"><tspan x="6" y="55">s</tspan></text></g><g transform="translate(535)"><path d="m0 0h20v100h-20z" fill="#bbe0ed" stroke="#979797"/><text fill="#000" font-family="Helvetica" font-size="18"><tspan x="6" y="55">s</tspan></text></g><g transform="translate(515)"><path d="m0 0h20v100h-20z" fill="#bbe0ed" stroke="#979797"/><text fill="#000" font-family="Helvetica" font-size="18"><tspan x="6" y="55">s</tspan></text></g><g transform="translate(495)"><path d="m0 0h20v100h-20z" fill="#bbe0ed" stroke="#979797"/><text fill="#000" font-family="Helvetica" font-size="18"><tspan x="6" y="55">s</tspan></text></g><g transform="translate(470)"><path d="m0 0h20v100h-20z" fill="#bbe0ed" stroke="#979797"/><text fill="#000" font-family="Helvetica" font-size="18"><tspan x="6" y="55">s</tspan></text></g><g transform="translate(450)"><path d="m0 0h20v100h-20z" fill="#bbe0ed" stroke="#979797"/><text fill="#000" font-family="Helvetica" font-size="18"><tspan x="6" y="55">s</tspan></text></g><g transform="translate(430)"><path d="m0 0h20v100h-20z" fill="#bbe0ed" stroke="#979797"/><text fill="#000" font-family="Helvetica" font-size="18"><tspan x="6" y="55">s</tspan></text></g><g transform="translate(410)"><path d="m0 0h20v100h-20z" fill="#bbe0ed" stroke="#979797"/><text fill="#000" font-family="Helvetica" font-size="18"><tspan x="6" y="55">s</tspan></text></g><g transform="translate(390)"><path d="m0 0h20v100h-20z" fill="#bbe0ed" stroke="#979797"/><text fill="#000" font-family="Helvetica" font-size="18"><tspan x="6" y="55">s</tspan></text></g><g transform="translate(370)"><path d="m0 0h20v100h-20z" fill="#bbe0ed" stroke="#979797"/><text fill="#000" font-family="Helvetica" font-size="18"><tspan x="6" y="55">s</tspan></text></g><g transform="translate(350)"><path d="m0 0h20v100h-20z" fill="#bbe0ed" stroke="#979797"/><text fill="#000" font-family="Helvetica" font-size="18"><tspan x="6" y="55">s</tspan></text></g><g transform="translate(330)"><path d="m0 0h20v100h-20z" fill="#bbe0ed" stroke="#979797"/><text fill="#000" font-family="Helvetica" font-size="18"><tspan x="6" y="55">s</tspan></text></g><g transform="translate(305)"><path d="m0 0h20v100h-20z" fill="#bbe0ed" stroke="#979797"/><text fill="#000" font-family="Helvetica" font-size="18"><tspan x="6" y="55">s</tspan></text></g><g transform="translate(285)"><path d="m0 0h20v100h-20z" fill="#bbe0ed" stroke="#979797"/><text fill="#000" font-family="Helvetica" font-size="18"><tspan x="6" y="55">s</tspan></text></g><g transform="translate(265)"><path d="m0 0h20v100h-20z" fill="#bbe0ed" stroke="#979797"/><text fill="#000" font-family="Helvetica" font-size="18"><tspan x="6" y="55">s</tspan></text></g><g transform="translate(245)"><path d="m0 0h20v100h-20z" fill="#bbe0ed" stroke="#979797"/><text fill="#000" font-family="Helvetica" font-size="18"><tspan x="6" y="55">s</tspan></text></g><g transform="translate(225)"><path d="m0 0h20v100h-20z" fill="#bbe0ed" stroke="#979797"/><text fill="#000" font-family="Helvetica" font-size="18"><tspan x="6" y="55">s</tspan></text></g><g transform="translate(205)"><path d="m0 0h20v100h-20z" fill="#bbe0ed" stroke="#979797"/><text fill="#000" font-family="Helvetica" font-size="18"><tspan x="6" y="55">s</tspan></text></g><g transform="translate(185)"><path d="m0 0h20v100h-20z" fill="#f4a894" stroke="#979797"/><text fill="#000" font-family="Helvetica" font-size="18"><tspan x="7.503" y="55">-</tspan></text></g><g transform="translate(165)"><path d="m0 0h20v100h-20z" fill="#e6c2fc" stroke="#979797"/><text fill="#000" font-family="Helvetica" font-size="18"><tspan x="6" y="55">e</tspan></text></g><g transform="translate(140)"><path d="m0 0h20v100h-20z" fill="#e6c2fc" stroke="#979797"/><text fill="#000" font-family="Helvetica" font-size="18"><tspan x="6" y="55">e</tspan></text></g><g transform="translate(120)"><path d="m0 0h20v100h-20z" fill="#e6c2fc" stroke="#979797"/><text fill="#000" font-family="Helvetica" font-size="18"><tspan x="6" y="55">e</tspan></text></g><g transform="translate(100)"><path d="m0 0h20v100h-20z" fill="#e6c2fc" stroke="#979797"/><text fill="#000" font-family="Helvetica" font-size="18"><tspan x="6" y="55">e</tspan></text></g><g transform="translate(80)"><path d="m0 0h20v100h-20z" fill="#e6c2fc" stroke="#979797"/><text fill="#000" font-family="Helvetica" font-size="18"><tspan x="6" y="55">e</tspan></text></g><g transform="translate(60)"><path d="m0 0h20v100h-20z" fill="#e6c2fc" stroke="#979797"/><text fill="#000" font-family="Helvetica" font-size="18"><tspan x="6" y="55">e</tspan></text></g><g transform="translate(40)"><path d="m0 0h20v100h-20z" fill="#e6c2fc" stroke="#979797"/><text fill="#000" font-family="Helvetica" font-size="18"><tspan x="6" y="55">e</tspan></text></g><g transform="translate(20)"><path d="m0 0h20v100h-20z" fill="#e6c2fc" stroke="#979797"/><text fill="#000" font-family="Helvetica" font-size="18"><tspan x="6" y="55">e</tspan></text></g><path d="m0 0h20v100h-20z" fill="#e6c2fc" stroke="#979797"/><text fill="#000" font-family="Helvetica" font-size="18"><tspan x="6" y="55">e</tspan></text></g><g fill="#979797" font-family="SFMono-Regular, SF Mono" font-size="20"><text><tspan x="1300.318" y="19">0</tspan></text><text><tspan x="163.137" y="19">55</tspan></text><text><tspan x="201.137" y="19">53</tspan></text><text><tspan x=".137" y="19">63</tspan></text></g></g></svg>