<svg height="175" viewBox="0 0 1320 175" width="1320" xmlns="http://www.w3.org/2000/svg"><g fill="none" fill-rule="evenodd"><g fill="#979797" transform="translate(1132 146)"><text font-family="Helvetica" font-size="20"><tspan x="52.244" y="19">Exponent</tspan></text><path d="m14 5v6h30v2h-30v6l-14-7zm157 0 14 7-14 7v-6h-29v-2h29z" fill-rule="nonzero"/></g><g fill="#979797" transform="translate(1 147)"><path d="m1113.98622 4.02762697 14.01378 6.97237303-13.98617 7.0275997-.01283-6.0005997-492.999028.9729981-.999998.0019723-.003944-1.9999961.999998-.0019724 492.999972-.9730019z" fill-rule="nonzero"/><text font-family="Helvetica" font-size="20"><tspan x="514.079" y="19">Significand</tspan></text><path d="m14.506917 4.51385109-.006917 5.99914891 491.500989.4870005 1 .0009891-.001979 1.999999-.999999-.0009891-491.500011-.4869995-.0059307 6.0008442-13.9930693-7.0138442z" fill-rule="nonzero"/></g><g transform="translate(1 28)"><g transform="translate(1295)"><path d="m0 0h20v100h-20z" fill="#e6c2fc" stroke="#979797"/><text fill="#000" font-family="Helvetica" font-size="18"><tspan x="6" y="55">e</tspan></text></g><g transform="translate(1275)"><path d="m0 0h20v100h-20z" fill="#e6c2fc" stroke="#979797"/><text fill="#000" font-family="Helvetica" font-size="18"><tspan x="6" y="55">e</tspan></text></g><g transform="translate(1255)"><path d="m0 0h20v100h-20z" fill="#e6c2fc" stroke="#979797"/><text fill="#000" font-family="Helvetica" font-size="18"><tspan x="6" y="55">e</tspan></text></g><g transform="translate(1235)"><path d="m0 0h20v100h-20z" fill="#e6c2fc" stroke="#979797"/><text fill="#000" font-family="Helvetica" font-size="18"><tspan x="6" y="55">e</tspan></text></g><g transform="translate(1215)"><path d="m0 0h20v100h-20z" fill="#e6c2fc" stroke="#979797"/><text fill="#000" font-family="Helvetica" font-size="18"><tspan x="6" y="55">e</tspan></text></g><g transform="translate(1195)"><path d="m0 0h20v100h-20z" fill="#e6c2fc" stroke="#979797"/><text fill="#000" font-family="Helvetica" font-size="18"><tspan x="6" y="55">e</tspan></text></g><g transform="translate(1175)"><path d="m0 0h20v100h-20z" fill="#e6c2fc" stroke="#979797"/><text fill="#000" font-family="Helvetica" font-size="18"><tspan x="6" y="55">e</tspan></text></g><g transform="translate(1155)"><path d="m0 0h20v100h-20z" fill="#e6c2fc" stroke="#979797"/><text fill="#000" font-family="Helvetica" font-size="18"><tspan x="6" y="55">e</tspan></text></g><g transform="translate(1130)"><path d="m0 0h20v100h-20z" fill="#e6c2fc" stroke="#979797"/><text fill="#000" font-family="Helvetica" font-size="18"><tspan x="6" y="55">e</tspan></text></g><g transform="translate(1110)"><path d="m0 0h20v100h-20z" fill="#bbe0ed" stroke="#979797"/><text fill="#000" font-family="Helvetica" font-size="18"><tspan x="6" y="55">s</tspan></text></g><g transform="translate(1090)"><path d="m0 0h20v100h-20z" fill="#bbe0ed" stroke="#979797"/><text fill="#000" font-family="Helvetica" font-size="18"><tspan x="6" y="55">s</tspan></text></g><g transform="translate(1070)"><path d="m0 0h20v100h-20z" fill="#bbe0ed" stroke="#979797"/><text fill="#000" font-family="Helvetica" font-size="18"><tspan x="6" y="55">s</tspan></text></g><g transform="translate(1050)"><path d="m0 0h20v100h-20z" fill="#bbe0ed" stroke="#979797"/><text fill="#000" font-family="Helvetica" font-size="18"><tspan x="6" y="55">s</tspan></text></g><g transform="translate(1030)"><path d="m0 0h20v100h-20z" fill="#bbe0ed" stroke="#979797"/><text fill="#000" font-family="Helvetica" font-size="18"><tspan x="6" y="55">s</tspan></text></g><g transform="translate(1010)"><path d="m0 0h20v100h-20z" fill="#bbe0ed" stroke="#979797"/><text fill="#000" font-family="Helvetica" font-size="18"><tspan x="6" y="55">s</tspan></text></g><g transform="translate(990)"><path d="m0 0h20v100h-20z" fill="#bbe0ed" stroke="#979797"/><text fill="#000" font-family="Helvetica" font-size="18"><tspan x="6" y="55">s</tspan></text></g><g transform="translate(965)"><path d="m0 0h20v100h-20z" fill="#bbe0ed" stroke="#979797"/><text fill="#000" font-family="Helvetica" font-size="18"><tspan x="6" y="55">s</tspan></text></g><g transform="translate(945)"><path d="m0 0h20v100h-20z" fill="#bbe0ed" stroke="#979797"/><text fill="#000" font-family="Helvetica" font-size="18"><tspan x="6" y="55">s</tspan></text></g><g transform="translate(925)"><path d="m0 0h20v100h-20z" fill="#bbe0ed" stroke="#979797"/><text fill="#000" font-family="Helvetica" font-size="18"><tspan x="6" y="55">s</tspan></text></g><g transform="translate(905)"><path d="m0 0h20v100h-20z" fill="#bbe0ed" stroke="#979797"/><text fill="#000" font-family="Helvetica" font-size="18"><tspan x="6" y="55">s</tspan></text></g><g transform="translate(885)"><path d="m0 0h20v100h-20z" fill="#bbe0ed" stroke="#979797"/><text fill="#000" font-family="Helvetica" font-size="18"><tspan x="6" y="55">s</tspan></text></g><g transform="translate(865)"><path d="m0 0h20v100h-20z" fill="#bbe0ed" stroke="#979797"/><text fill="#000" font-family="Helvetica" font-size="18"><tspan x="6" y="55">s</tspan></text></g><g transform="translate(845)"><path d="m0 0h20v100h-20z" fill="#bbe0ed" stroke="#979797"/><text fill="#000" font-family="Helvetica" font-size="18"><tspan x="6" y="55">s</tspan></text></g><g transform="translate(825)"><path d="m0 0h20v100h-20z" fill="#bbe0ed" stroke="#979797"/><text fill="#000" font-family="Helvetica" font-size="18"><tspan x="6" y="55">s</tspan></text></g><g transform="translate(800)"><path d="m0 0h20v100h-20z" fill="#bbe0ed" stroke="#979797"/><text fill="#000" font-family="Helvetica" font-size="18"><tspan x="6" y="55">s</tspan></text></g><g transform="translate(780)"><path d="m0 0h20v100h-20z" fill="#bbe0ed" stroke="#979797"/><text fill="#000" font-family="Helvetica" font-size="18"><tspan x="6" y="55">s</tspan></text></g><g transform="translate(760)"><path d="m0 0h20v100h-20z" fill="#bbe0ed" stroke="#979797"/><text fill="#000" font-family="Helvetica" font-size="18"><tspan x="6" y="55">s</tspan></text></g><g transform="translate(740)"><path d="m0 0h20v100h-20z" fill="#bbe0ed" stroke="#979797"/><text fill="#000" font-family="Helvetica" font-size="18"><tspan x="6" y="55">s</tspan></text></g><g transform="translate(720)"><path d="m0 0h20v100h-20z" fill="#bbe0ed" stroke="#979797"/><text fill="#000" font-family="Helvetica" font-size="18"><tspan x="6" y="55">s</tspan></text></g><g transform="translate(700)"><path d="m0 0h20v100h-20z" fill="#bbe0ed" stroke="#979797"/><text fill="#000" font-family="Helvetica" font-size="18"><tspan x="6" y="55">s</tspan></text></g><g transform="translate(680)"><path d="m0 0h20v100h-20z" fill="#bbe0ed" stroke="#979797"/><text fill="#000" font-family="Helvetica" font-size="18"><tspan x="6" y="55">s</tspan></text></g><g transform="translate(660)"><path d="m0 0h20v100h-20z" fill="#bbe0ed" stroke="#979797"/><text fill="#000" font-family="Helvetica" font-size="18"><tspan x="6" y="55">s</tspan></text></g><g transform="translate(635)"><path d="m0 0h20v100h-20z" fill="#bbe0ed" stroke="#979797"/><text fill="#000" font-family="Helvetica" font-size="18"><tspan x="6" y="55">s</tspan></text></g><g transform="translate(615)"><path d="m0 0h20v100h-20z" fill="#bbe0ed" stroke="#979797"/><text fill="#000" font-family="Helvetica" font-size="18"><tspan x="6" y="55">s</tspan></text></g><g transform="translate(595)"><path d="m0 0h20v100h-20z" fill="#bbe0ed" stroke="#979797"/><text fill="#000" font-family="Helvetica" font-size="18"><tspan x="6" y="55">s</tspan></text></g><g transform="translate(575)"><path d="m0 0h20v100h-20z" fill="#bbe0ed" stroke="#979797"/><text fill="#000" font-family="Helvetica" font-size="18"><tspan x="6" y="55">s</tspan></text></g><g transform="translate(555)"><path d="m0 0h20v100h-20z" fill="#bbe0ed" stroke="#979797"/><text fill="#000" font-family="Helvetica" font-size="18"><tspan x="6" y="55">s</tspan></text></g><g transform="translate(535)"><path d="m0 0h20v100h-20z" fill="#bbe0ed" stroke="#979797"/><text fill="#000" font-family="Helvetica" font-size="18"><tspan x="6" y="55">s</tspan></text></g><g transform="translate(515)"><path d="m0 0h20v100h-20z" fill="#bbe0ed" stroke="#979797"/><text fill="#000" font-family="Helvetica" font-size="18"><tspan x="6" y="55">s</tspan></text></g><g transform="translate(495)"><path d="m0 0h20v100h-20z" fill="#bbe0ed" stroke="#979797"/><text fill="#000" font-family="Helvetica" font-size="18"><tspan x="6" y="55">s</tspan></text></g><g transform="translate(470)"><path d="m0 0h20v100h-20z" fill="#bbe0ed" stroke="#979797"/><text fill="#000" font-family="Helvetica" font-size="18"><tspan x="6" y="55">s</tspan></text></g><g transform="translate(450)"><path d="m0 0h20v100h-20z" fill="#bbe0ed" stroke="#979797"/><text fill="#000" font-family="Helvetica" font-size="18"><tspan x="6" y="55">s</tspan></text></g><g transform="translate(430)"><path d="m0 0h20v100h-20z" fill="#bbe0ed" stroke="#979797"/><text fill="#000" font-family="Helvetica" font-size="18"><tspan x="6" y="55">s</tspan></text></g><g transform="translate(410)"><path d="m0 0h20v100h-20z" fill="#bbe0ed" stroke="#979797"/><text fill="#000" font-family="Helvetica" font-size="18"><tspan x="6" y="55">s</tspan></text></g><g transform="translate(390)"><path d="m0 0h20v100h-20z" fill="#bbe0ed" stroke="#979797"/><text fill="#000" font-family="Helvetica" font-size="18"><tspan x="6" y="55">s</tspan></text></g><g transform="translate(370)"><path d="m0 0h20v100h-20z" fill="#bbe0ed" stroke="#979797"/><text fill="#000" font-family="Helvetica" font-size="18"><tspan x="6" y="55">s</tspan></text></g><g transform="translate(350)"><path d="m0 0h20v100h-20z" fill="#bbe0ed" stroke="#979797"/><text fill="#000" font-family="Helvetica" font-size="18"><tspan x="6" y="55">s</tspan></text></g><g transform="translate(330)"><path d="m0 0h20v100h-20z" fill="#bbe0ed" stroke="#979797"/><text fill="#000" font-family="Helvetica" font-size="18"><tspan x="6" y="55">s</tspan></text></g><g transform="translate(305)"><path d="m0 0h20v100h-20z" fill="#bbe0ed" stroke="#979797"/><text fill="#000" font-family="Helvetica" font-size="18"><tspan x="6" y="55">s</tspan></text></g><g transform="translate(285)"><path d="m0 0h20v100h-20z" fill="#bbe0ed" stroke="#979797"/><text fill="#000" font-family="Helvetica" font-size="18"><tspan x="6" y="55">s</tspan></text></g><g transform="translate(265)"><path d="m0 0h20v100h-20z" fill="#bbe0ed" stroke="#979797"/><text fill="#000" font-family="Helvetica" font-size="18"><tspan x="6" y="55">s</tspan></text></g><g transform="translate(245)"><path d="m0 0h20v100h-20z" fill="#bbe0ed" stroke="#979797"/><text fill="#000" font-family="Helvetica" font-size="18"><tspan x="6" y="55">s</tspan></text></g><g transform="translate(225)"><path d="m0 0h20v100h-20z" fill="#bbe0ed" stroke="#979797"/><text fill="#000" font-family="Helvetica" font-size="18"><tspan x="6" y="55">s</tspan></text></g><g transform="translate(205)"><path d="m0 0h20v100h-20z" fill="#bbe0ed" stroke="#979797"/><text fill="#000" font-family="Helvetica" font-size="18"><tspan x="6" y="55">s</tspan></text></g><g transform="translate(185)"><path d="m0 0h20v100h-20z" fill="#bbe0ed" stroke="#979797"/><text fill="#000" font-family="Helvetica" font-size="18"><tspan x="6" y="55">s</tspan></text></g><g transform="translate(165)"><path d="m0 0h20v100h-20z" fill="#bbe0ed" stroke="#979797"/><text fill="#000" font-family="Helvetica" font-size="18"><tspan x="6" y="55">s</tspan></text></g><g transform="translate(140)"><path d="m0 0h20v100h-20z" fill="#bbe0ed" stroke="#979797"/><text fill="#000" font-family="Helvetica" font-size="18"><tspan x="6" y="55">s</tspan></text></g><g transform="translate(120)"><path d="m0 0h20v100h-20z" fill="#bbe0ed" stroke="#979797"/><text fill="#000" font-family="Helvetica" font-size="18"><tspan x="6" y="55">s</tspan></text></g><g transform="translate(100)"><path d="m0 0h20v100h-20z" fill="#bbe0ed" stroke="#979797"/><text fill="#000" font-family="Helvetica" font-size="18"><tspan x="6" y="55">s</tspan></text></g><g transform="translate(80)"><path d="m0 0h20v100h-20z" fill="#bbe0ed" stroke="#979797"/><text fill="#000" font-family="Helvetica" font-size="18"><tspan x="6" y="55">s</tspan></text></g><g transform="translate(60)"><path d="m0 0h20v100h-20z" fill="#bbe0ed" stroke="#979797"/><text fill="#000" font-family="Helvetica" font-size="18"><tspan x="6" y="55">s</tspan></text></g><g transform="translate(40)"><path d="m0 0h20v100h-20z" fill="#bbe0ed" stroke="#979797"/><text fill="#000" font-family="Helvetica" font-size="18"><tspan x="6" y="55">s</tspan></text></g><g transform="translate(20)"><path d="m0 0h20v100h-20z" fill="#bbe0ed" stroke="#979797"/><text fill="#000" font-family="Helvetica" font-size="18"><tspan x="6" y="55">s</tspan></text></g><path d="m0 0h20v100h-20z" fill="#bbe0ed" stroke="#979797"/><text fill="#000" font-family="Helvetica" font-size="18"><tspan x="6" y="55">s</tspan></text></g><g fill="#979797" font-family="SFMono-Regular, SF Mono" font-size="20"><text><tspan x="1301.318" y="19">0</tspan></text><text><tspan x="1136.318" y="19">8</tspan></text><text><tspan x="1114.318" y="19">9</tspan></text><text><tspan x=".137" y="19">63</tspan></text></g></g></svg>